<?xml version="1.0" encoding="utf-8"?><svg viewBox="0 0 901 901" xmlns="http://www.w3.org/2000/svg" xmlns:xlink="http://www.w3.org/1999/xlink"><style>:root>svg{display:none}:root>svg:target{display:block}</style><svg fill="none" viewBox="0 0 44 44" id="check-box" xmlns="http://www.w3.org/2000/svg"><g clip-path="url(#aclip0)" stroke-linecap="round" stroke-linejoin="round"><path d="M31.167 5.5H12.833A7.333 7.333 0 005.5 12.833v18.334a7.333 7.333 0 007.333 7.333h18.334a7.333 7.333 0 007.333-7.334V12.834A7.333 7.333 0 0031.167 5.5z" stroke="#47CD74" stroke-width="3"/><path d="M16.5 22l4.125 3.667 6.875-7.334" stroke="#47CD74" stroke-width="3"/><g filter="url(#afilter0_f)" stroke="#47CD74" stroke-width="3"><path d="M31.167 5.5H12.833A7.333 7.333 0 005.5 12.833v18.334a7.333 7.333 0 007.333 7.333h18.334a7.333 7.333 0 007.333-7.334V12.834A7.333 7.333 0 0031.167 5.5z"/><path d="M16.5 22l4.125 3.667 6.875-7.334"/></g><path d="M31.167 5.5H12.833A7.333 7.333 0 005.5 12.833v18.334a7.333 7.333 0 007.333 7.333h18.334a7.333 7.333 0 007.333-7.334V12.834A7.333 7.333 0 0031.167 5.5z" stroke="#fff"/><path d="M16.5 22l4.125 3.667 6.875-7.334" stroke="#fff"/></g><defs><clipPath id="aclip0"><path fill="#fff" d="M0 0h44v44H0z"/></clipPath><filter id="afilter0_f" x="0" y="0" width="44" height="44" filterUnits="userSpaceOnUse" color-interpolation-filters="sRGB"><feFlood flood-opacity="0" result="BackgroundImageFix"/><feBlend in="SourceGraphic" in2="BackgroundImageFix" result="shape"/><feGaussianBlur stdDeviation="2" result="effect1_foregroundBlur"/></filter></defs></svg><svg fill="none" viewBox="0 0 901 901" id="decor-video" xmlns="http://www.w3.org/2000/svg"><g filter="url(#bfilter0_f)" transform="matrix(1 0 0 -1 450.573 450.266)"><circle r="300" fill="#0A0419"/><circle r="299.5" stroke="url(#bpaint0_linear)"/></g><defs><linearGradient id="bpaint0_linear" x1="423.427" y1="33.766" x2="158.927" y2="559.266" gradientUnits="userSpaceOnUse"><stop stop-color="#0C071B"/><stop offset="1" stop-color="#080519"/></linearGradient><filter id="bfilter0_f" x=".573" y=".266" width="900" height="900" filterUnits="userSpaceOnUse" color-interpolation-filters="sRGB"><feFlood flood-opacity="0" result="BackgroundImageFix"/><feBlend in="SourceGraphic" in2="BackgroundImageFix" result="shape"/><feGaussianBlur stdDeviation="75" result="effect1_foregroundBlur"/></filter></defs></svg><svg fill="none" viewBox="0 0 61 71" id="logo" xmlns="http://www.w3.org/2000/svg"><path d="M9.763 6.038c.003-.015.008-.026.017-.033l-.017.033C9.549 7.15 21.86 31.33 33.013 45.204L20.718 44.2 4.985 15.554l4.778-9.516z" fill="url(#cpaint0_linear)"/><path d="M4.001 53.245l11.639-.018v-9.028L4.493 39.676l-.492 13.569z" fill="url(#cpaint1_linear)"/><path d="M59.213 58.338l.945-.384-.415-1.032-.945.384.415 1.032zM55.422 56.724l.946-.383-.364-.904-.945.384.363.903zM54.508 56.795l.364.904-.946.383-.363-.903.945-.384zM52.266 53.953l.363.903-.945.384-.363-.904.945-.383zM51.279 55.404l.415 1.032-.81.33-.416-1.033.81-.329zM49.46 56.742l.364.904-.81.329-.363-.904.81-.328zM48.85 52.487l.362.904-.945.383-.363-.903.945-.384zM48.371 54.032l.363.904-1.08.438-.363-.903 1.08-.439zM46.875 55.39l.363.904-.81.329-.363-.904.81-.329zM44.922 56.783l.311.775-.81.329-.311-.775.81-.329zM45.62 51.096l.363.904-.81.328-.364-.903.81-.329zM45.276 52.587l.364.903-.81.329-.364-.904.81-.328zM44.476 54.112l.312.775-.81.328-.312-.774.81-.329zM42.845 55.525l.312.774-.81.33-.312-.775.81-.329zM40.84 56.79l.312.773-.81.33-.312-.775.81-.329zM42.629 49.908l.311.775-.675.274-.312-.774.676-.275zM42.42 51.344l.364.903-.675.274-.364-.903.676-.274zM41.89 52.76l.312.774-.81.33-.312-.775.81-.329zM40.768 54.266l.312.775-.81.329-.312-.775.81-.329zM39.22 55.495l.364.904-.81.328-.364-.903.81-.329zM37.267 56.889l.364.903-.675.274-.364-.903.675-.274zM39.991 48.427l.311.775-.675.274-.311-.775.675-.274zM39.97 49.937l.363.903-.81.33-.363-.904.81-.329zM39.44 51.353l.415 1.032-.81.33-.415-1.033.81-.329zM38.505 52.934l.363.903-.81.329-.364-.903.81-.33zM37.466 54.256l.415 1.032-.946.384-.415-1.032.946-.384zM35.97 55.614l.363.903-.945.384-.364-.903.946-.384zM37.727 47.094l.364.904-.81.329-.364-.904.81-.329zM37.706 48.604l.363.904-.81.328-.363-.903.81-.329zM37.415 50.224l.363.903-.945.384-.363-.904.945-.383zM36.615 51.75l.363.903-.81.329-.364-.904.81-.329zM35.763 53.146l.311.774-.81.33-.312-.775.81-.329zM34.454 54.578l.363.903-.81.33-.364-.904.81-.329zM33.145 56.01l.31.775-.674.274-.312-.775.675-.274zM34.204 57.081l.363.904-.81.329-.364-.904.81-.328zM32.105 57.333l.364.903-.405.165-.364-.904.405-.164zM35.203 47.068l.81-.329-.363-.903-.81.329.363.903zM35.681 47.475l.312.774-.81.329-.312-.774.81-.33zM35.338 48.965l.311.774-.675.274-.311-.774.675-.274zM34.808 50.381l.363.904-.81.328-.363-.903.81-.329zM34.008 51.907l.363.903-.81.33-.364-.904.81-.33zM33.02 53.358l.364.904-.81.329-.364-.904.81-.329zM32.034 54.81l.31.774-.81.33-.31-.775.81-.33zM31.233 56.336l.312.774-.405.164-.312-.774.405-.164zM33.32 45.797l1.29-.416-.973-.736-.552.28.235.872zM33.874 46.106l.415 1.033-.945.384-.415-1.033.945-.384zM33.583 47.726l.363.903-.945.384-.363-.903.945-.384zM33.105 49.271l.363.903-.945.384-.363-.903.945-.384zM32.627 50.816l.311.775-.945.383-.312-.774.946-.384zM31.775 52.213l.363.903-.945.384-.364-.903.946-.384zM30.923 53.61l.363.903-.945.384-.364-.904.946-.383zM30.174 55.264l.364.904-.405.164-.364-.903.405-.165zM29.25 54.138l.363.904-.405.164-.363-.903.405-.165zM29.863 52.538l.312.775-.945.383-.312-.774.945-.384zM28.191 53.067l.312.774-.405.165-.312-.774.405-.165zM30.394 51.122l.311.775-.81.328-.312-.774.81-.329zM31.059 49.651l.311.775-.81.329-.311-.775.81-.329zM31.537 48.106l.311.774-.81.33-.311-.775c-.042-.103.523-.262.81-.329zM32.015 46.561l.312.774-.81.33-.312-.775.81-.329zM32.306 44.942l.312.774-.946.384-.31-.775.944-.383zM31.829 44.535l-.367-1.125.245-.004 1.33.878-1.208.251zM30.925 43.851l.364.903-.946.384-.363-.903.945-.384zM30.508 42.383l.823.735-.748.272-.363-.904.288-.103zM30.55 45.654l.312.774-.945.384-.311-.774.945-.384zM30.073 47.2l.311.774-.81.329-.312-.775.81-.329zM29.782 48.819l.259.645-.675.274-.26-.645.675-.274zM29.148 49.977l.363.903-.81.33-.364-.904.81-.33zM28.721 51.651l.26.645-.81.33-.26-.646.81-.329zM27.32 52.07l.31.774-.405.165-.311-.774.405-.165zM29.747 41.331l.545.698-.768.29-.312-.775.535-.213zM29.68 42.706l.363.903-.81.329-.364-.904.81-.328zM29.388 44.325l.311.774-.81.33-.311-.775.81-.33zM28.91 45.87l.311.774-.675.274-.311-.774.675-.274zM28.432 47.415l.311.775-.675.274-.312-.775.676-.274zM27.953 48.96l.26.646-.675.274-.26-.646.675-.274zM27.475 50.505l.312.775-.675.274-.312-.774.675-.275zM26.156 50.74l.312.775-.405.164-.312-.774.405-.164zM28.868 40.161l.542.702-.81.33-.312-.775.58-.257zM28.672 41.763l.26.646-.676.274-.259-.646.675-.274zM28.194 43.309l.311.774-.675.274-.311-.774.675-.274zM27.85 44.799l.26.645-.675.274-.26-.645.676-.274zM27.269 46.086l.311.774-.675.274-.311-.774.675-.274zM26.843 47.76l.31.774-.674.275-.312-.775.675-.274zM26.364 49.305l.312.775-.675.274-.312-.775.675-.274zM25.284 49.744l.311.774-.405.164-.311-.774.405-.164zM28.17 39.177l.471.645-.914.373-.31-.774.753-.244zM27.883 40.582l.312.775-.81.329-.312-.775.81-.329zM27.353 41.999l.311.774-.945.384-.311-.775.945-.383zM26.875 43.544l.311.774-.945.384-.311-.775.945-.383zM26.397 45.089l.311.774-.945.384-.312-.774.946-.384zM25.919 46.634l.31.774-.81.33-.31-.775.81-.329zM25.575 48.124l.312.775-.81.329-.312-.775.81-.329zM23.745 48.918l.372-.244.263.447.155.336-.31.214-.48-.753zM26.647 40.634l.675-.274-.311-.775-.675.274.311.775zM26.48 41.002l.312.774-.81.329-.311-.775.81-.328zM26.003 42.547l.311.774-.81.329-.312-.774.81-.33zM25.524 44.092l.26.645-.81.329-.26-.645.81-.33zM24.994 45.508l.312.774-.81.33-.312-.775.81-.329zM24.703 47.127l.312.775-.81.329-.312-.775.81-.329zM23.288 47.627l.448.645-.287.268-.581-.714.42-.2zM27.33 37.976l.606.784-.676.274-.311-.774.38-.284zM26.544 38.424l.311.774-.945.384-.311-.774.945-.384zM25.744 39.95l.311.774-.675.274-.311-.774.675-.274zM25.214 41.366l.311.774-.81.329-.311-.774.81-.33zM24.6 42.966l.312.774-.675.274-.312-.774.675-.274zM24.122 44.511l.312.774-.675.274-.312-.774.675-.274zM23.78 46.001l.31.775-.81.328-.311-.774.81-.329zM22.407 46.51l.454.787-.2.093a.2.2 0 01-.261-.088l-.343-.65.35-.143zM25.142 38.843l.363.903-.81.33-.364-.904.81-.329zM24.529 40.443l.31.774-.81.33-.31-.775.81-.329zM23.998 41.86l.312.773-.81.33-.312-.775.81-.329zM23.52 43.404l.312.775-.81.328-.312-.774.81-.329zM22.99 44.82l.363.904-.884.359-.363-.904.884-.359zM21.775 45.314l.363.903-.245.1a.2.2 0 01-.247-.084l-.372-.633.5-.286zM22.305 43.898l.311.774-.81.329-.311-.774.81-.33zM21 44.235l.42.956-.267.098a.2.2 0 01-.254-.113l-.291-.723.392-.218zM22.783 42.352l.311.775-.81.329-.311-.775.81-.328zM21.703 42.791l.311.774-.81.33-.311-.775.81-.329zM20.436 43.155l.311.775-.297.255-.477-.722.463-.308zM23.396 40.752l.312.775-.81.329-.312-.775.81-.329zM22.181 41.246l.311.774-.81.33-.311-.775.81-.33zM20.966 41.74l.311.773-.81.33-.311-.775.81-.329zM19.885 42.178l.312.774-.405.165-.411-.708.504-.231zM24.061 39.282c.042.233.162.715.312.774l-.81.329-.312-.774.81-.33zM22.846 39.775l.311.774-.945.384-.311-.774.945-.384zM21.63 40.268l.312.775-.81.328-.311-.774.81-.329zM20.55 40.707l.312.774-.81.329-.312-.774.81-.33zM19.47 41.145l.312.775-.405.164-.312-.774.405-.165zM26.564 36.902l.549.692-.59.388-.311-.774.352-.306zM25.807 37.372l.311.775-.81.328-.311-.774.81-.329zM24.591 37.865l.312.775-.81.329-.312-.775.81-.329zM23.511 38.304l.312.774-.81.33-.312-.775.81-.329zM22.296 38.797l.311.775-.81.329-.311-.775.81-.329zM21.216 39.236l.311.774-.81.33-.311-.775.81-.33zM20.135 39.674l.312.775-.945.383-.312-.774.945-.384zM18.961 41.052l.405-.165-.31-.774-.406.164.311.775z" fill="#0D65BB"/><g filter="url(#cfilter0_d)"><path d="M5.154 16.072L.974 6.255l19.343-.629c3.8-.124 7.779-.117 11.055 1.813 8.595 5.061 10.132 17.036 2.185 24.511l-29.4 21.36.483-13.685 15.98-11.771c4.112-3.028 9.485-9.028 4.893-11.259a2.688 2.688 0 00-1.13-.278l-19.229-.245z" fill="#1F8EFA"/></g><defs><linearGradient id="cpaint0_linear" x1="24.161" y1="44.199" x2="15.22" y2="39.339" gradientUnits="userSpaceOnUse"><stop stop-color="#0C67C0" stop-opacity=".04"/><stop offset=".767" stop-color="#0C67C0"/></linearGradient><linearGradient id="cpaint1_linear" x1="24.161" y1="44.199" x2="15.22" y2="39.339" gradientUnits="userSpaceOnUse"><stop stop-color="#0C67C0" stop-opacity=".04"/><stop offset=".767" stop-color="#0C67C0"/></linearGradient><filter id="cfilter0_d" x="-9.846" y=".198" width="58.847" height="68.706" filterUnits="userSpaceOnUse" color-interpolation-filters="sRGB"><feFlood flood-opacity="0" result="BackgroundImageFix"/><feColorMatrix in="SourceAlpha" values="0 0 0 0 0 0 0 0 0 0 0 0 0 0 0 0 0 0 127 0" result="hardAlpha"/><feOffset dy="5"/><feGaussianBlur stdDeviation="5"/><feComposite in2="hardAlpha" operator="out"/><feColorMatrix values="0 0 0 0 0 0 0 0 0 0 0 0 0 0 0 0 0 0 0.25 0"/><feBlend in2="BackgroundImageFix" result="effect1_dropShadow"/><feBlend in="SourceGraphic" in2="effect1_dropShadow" result="shape"/></filter></defs></svg></svg>