<svg width="129" height="129" viewBox="0 0 129 129" fill="none" xmlns="http://www.w3.org/2000/svg">
<g clip-path="url(#clip0)">
<rect x="81.6328" y="13.3535" width="5.03906" height="5.03906" fill="white"/>
<rect x="61.9805" y="43.084" width="5.03906" height="5.03906" fill="white"/>
<rect x="95.2383" y="13.3535" width="5.03906" height="5.03906" fill="white"/>
<rect x="108.844" y="13.3535" width="5.03906" height="5.03906" fill="white"/>
<rect x="15.1172" y="13.3535" width="42.8975" height="5.03906" fill="white"/>
<path d="M120.917 0H8.08316C3.62611 0 0 3.62611 0 8.08316V101.377C0 105.834 3.62611 109.46 8.08316 109.46H21.5755V119.61C21.5755 124.788 25.7879 129.001 30.9655 129.001H98.0347C103.212 129.001 107.425 124.788 107.425 119.61V109.46H120.917C125.374 109.46 129 105.834 129 101.377V8.08316C129 3.62611 125.374 0 120.917 0ZM123.961 101.377C123.961 103.055 122.595 104.421 120.917 104.421H107.424V52.541C107.424 47.3634 103.212 43.151 98.0345 43.151H75.8019C74.4106 43.151 73.2823 44.279 73.2823 45.6705C73.2823 47.0621 74.4106 48.1901 75.8019 48.1901H98.0345C100.433 48.1901 102.385 50.1419 102.385 52.541V119.61C102.385 122.009 100.434 123.961 98.0345 123.961H30.9655C28.5664 123.961 26.6146 122.009 26.6146 119.61V52.541C26.6146 50.1419 28.5664 48.1901 30.9655 48.1901H53.1694C54.561 48.1901 55.6889 47.0621 55.6889 45.6705C55.6889 44.279 54.561 43.151 53.1694 43.151H30.9655C25.7879 43.151 21.5755 47.3634 21.5755 52.541V104.421H8.08316C6.40465 104.421 5.03906 103.055 5.03906 101.377V31.571H123.961V101.377ZM123.961 26.5319H5.03906V8.08316C5.03906 6.40465 6.40465 5.03906 8.08316 5.03906H120.917C122.595 5.03906 123.961 6.40465 123.961 8.08316V26.5319Z" fill="white"/>
<path d="M35.0291 70.3372C36.4207 70.3372 37.5486 69.2092 37.5486 67.8177V59.1245H46.2418C47.6333 59.1245 48.7613 57.9965 48.7613 56.605C48.7613 55.2134 47.6333 54.0854 46.2418 54.0854H35.0291C33.6376 54.0854 32.5096 55.2134 32.5096 56.605V67.8177C32.5096 69.2089 33.6376 70.3372 35.0291 70.3372Z" fill="white"/>
<path d="M82.7509 59.1245H91.4513V67.8177C91.4513 69.2092 92.5796 70.3372 93.9709 70.3372C95.3621 70.3372 96.4904 69.2092 96.4904 67.8177V56.605C96.4904 55.2134 95.3621 54.0854 93.9709 54.0854H82.7509C81.3596 54.0854 80.2314 55.2134 80.2314 56.605C80.2314 57.9965 81.3593 59.1245 82.7509 59.1245Z" fill="white"/>
<path d="M46.2418 113.028H37.5486V104.327C37.5486 102.936 36.4207 101.808 35.0291 101.808C33.6376 101.808 32.5096 102.936 32.5096 104.327V115.547C32.5096 116.939 33.6376 118.067 35.0291 118.067H46.2418C47.6333 118.067 48.7613 116.939 48.7613 115.547C48.7613 114.156 47.6333 113.028 46.2418 113.028Z" fill="white"/>
<path d="M93.9709 101.808C92.5796 101.808 91.4513 102.936 91.4513 104.327V113.028H82.7509C81.3596 113.028 80.2314 114.156 80.2314 115.547C80.2314 116.939 81.3596 118.067 82.7509 118.067H93.9709C95.3621 118.067 96.4904 116.939 96.4904 115.547V104.327C96.4904 102.936 95.3621 101.808 93.9709 101.808Z" fill="white"/>
<path d="M55.5349 86.0728C55.5349 91.0181 59.5551 95.0416 64.4964 95.0416C69.4415 95.0416 73.4649 91.0181 73.4649 86.0728C73.4649 81.1315 69.4415 77.1113 64.4964 77.1113C59.5551 77.1113 55.5349 81.1312 55.5349 86.0728ZM68.4259 86.0728C68.4259 88.2396 66.6632 90.0025 64.4964 90.0025C62.3336 90.0025 60.574 88.2396 60.574 86.0728C60.574 83.91 62.3336 82.1504 64.4964 82.1504C66.6632 82.1504 68.4259 83.91 68.4259 86.0728Z" fill="#1F8EFA"/>
<path d="M42.2284 74.0343C37.7452 77.1268 32.5096 82.1349 32.5096 86.0711C32.5096 90.0107 37.7452 95.019 42.2287 98.111C46.17 100.829 54.3035 105.388 64.4963 105.388C74.689 105.388 82.8249 100.829 86.7672 98.1112C91.2524 95.0193 96.4903 90.0107 96.4903 86.0711C96.4903 82.1349 91.2527 77.1268 86.7674 74.0341C82.8244 71.3153 74.6878 66.7539 64.4963 66.7539C54.3048 66.7539 46.1702 71.3153 42.2284 74.0343ZM37.5514 86.0714C37.6751 85.2941 39.5015 82.2483 44.2234 78.7978C43.3955 81.1052 42.9578 83.5617 42.9578 86.0711C42.9578 88.5811 43.396 91.0394 44.2251 93.3486C39.4993 89.896 37.6741 86.8487 37.5514 86.0714ZM84.7684 78.7942C89.4953 82.2463 91.324 85.2934 91.4482 86.0714C91.325 86.8492 89.4976 89.8983 84.7664 93.3521C85.5961 91.0414 86.0342 88.5819 86.0342 86.0709C86.0345 83.5607 85.5966 81.1029 84.7684 78.7942ZM80.9954 86.0711C80.9954 90.7265 79.0282 95.1495 75.591 98.2836C72.4096 99.462 68.6404 100.349 64.4963 100.349C60.3562 100.349 56.5908 99.4635 53.4119 98.2868C49.9679 95.1546 47.9971 90.73 47.9971 86.0709C47.9971 81.4045 49.9719 76.9784 53.4222 73.8524C56.5991 72.6771 60.361 71.7927 64.4965 71.7927C68.6359 71.7927 72.4016 72.6786 75.581 73.8557C79.0244 76.984 80.9954 81.4085 80.9954 86.0711Z" fill="#1F8EFA"/>
</g>
<defs>
<clipPath id="clip0">
<rect width="129" height="129" fill="white"/>
</clipPath>
</defs>
</svg>
