<svg width="44" height="44" viewBox="0 0 44 44" fill="none" xmlns="http://www.w3.org/2000/svg">
<g clip-path="url(#clip0)">
<path d="M31.1667 5.49988H12.8333C8.78325 5.49988 5.5 8.78312 5.5 12.8332V31.1665C5.5 35.2166 8.78325 38.4999 12.8333 38.4999H31.1667C35.2168 38.4999 38.5 35.2166 38.5 31.1665V12.8332C38.5 8.78312 35.2168 5.49988 31.1667 5.49988Z" stroke="#47CD74" stroke-width="3" stroke-linecap="round" stroke-linejoin="round"/>
<path d="M16.5 21.9999L20.625 25.6666L27.5 18.3333" stroke="#47CD74" stroke-width="3" stroke-linecap="round" stroke-linejoin="round"/>
<g filter="url(#filter0_f)">
<path d="M31.1667 5.49988H12.8333C8.78325 5.49988 5.5 8.78312 5.5 12.8332V31.1665C5.5 35.2166 8.78325 38.4999 12.8333 38.4999H31.1667C35.2168 38.4999 38.5 35.2166 38.5 31.1665V12.8332C38.5 8.78312 35.2168 5.49988 31.1667 5.49988Z" stroke="#47CD74" stroke-width="3" stroke-linecap="round" stroke-linejoin="round"/>
<path d="M16.5 21.9999L20.625 25.6666L27.5 18.3333" stroke="#47CD74" stroke-width="3" stroke-linecap="round" stroke-linejoin="round"/>
</g>
<path d="M31.1667 5.49988H12.8333C8.78325 5.49988 5.5 8.78312 5.5 12.8332V31.1665C5.5 35.2166 8.78325 38.4999 12.8333 38.4999H31.1667C35.2168 38.4999 38.5 35.2166 38.5 31.1665V12.8332C38.5 8.78312 35.2168 5.49988 31.1667 5.49988Z" stroke="white" stroke-linecap="round" stroke-linejoin="round"/>
<path d="M16.5 21.9999L20.625 25.6666L27.5 18.3333" stroke="white" stroke-linecap="round" stroke-linejoin="round"/>
</g>
<defs>
<filter id="filter0_f" x="0" y="-0.00012207" width="44" height="44" filterUnits="userSpaceOnUse" color-interpolation-filters="sRGB">
<feFlood flood-opacity="0" result="BackgroundImageFix"/>
<feBlend mode="normal" in="SourceGraphic" in2="BackgroundImageFix" result="shape"/>
<feGaussianBlur stdDeviation="2" result="effect1_foregroundBlur"/>
</filter>
<clipPath id="clip0">
<rect width="44" height="44" fill="white" transform="translate(0 -0.00012207)"/>
</clipPath>
</defs>
</svg>
